<?xml version="1.0" encoding="UTF-8"?><svg id="Layer_1" xmlns="http://www.w3.org/2000/svg" viewBox="0 0 248 49.999"><defs><style>.cls-1{fill:#5c2c0b;}.cls-1,.cls-2,.cls-3,.cls-4,.cls-5{fill-rule:evenodd;}.cls-2{fill:#383b5e;}.cls-3{fill:#db0433;}.cls-4{fill:#24a03c;}.cls-5{fill:#f9af1c;}</style></defs><path class="cls-2" d="M33.766,17.736c-.299-.376-1.563-1.916-3.648-3.207,.279-.42,.565-.83,1.23-1.096,1.017-.406,2.097-.147,2.828,.113,.518,.184,.86,.368,.881,.315,.042-.109-1.349-1.086-3.435-1.475-.997-.186-1.745-.162-2.329-.138-.734,.03-1.204,.06-1.575-.328-1.024-1.07,.165-3.798,0-3.844-.176-.049-1.085,2.284-2.629,2.641-.861,.199-.825,.262-2.563-.195-1.833-.48-3.548-.03-3.552,.156-.004,.144,1.033-.008,2.108,.582,.724,.397,1.033,.895,1.315,1.443-5.231,.547-9.863,4.447-11.148,9.382-1.257,4.83,.835,10.097,4.6,13.339,1.731-3.82,5.659-6.487,10.227-6.487,.574,0,1.137,.043,1.687,.124,.235-.845,.552-1.668,.954-2.454,1.708-3.344,4.519-5.2,6.703-6.197-.682-1.423-1.42-2.377-1.654-2.671Z"/><path class="cls-4" d="M15.212,37.264c-.054,.022-.108,.042-.16,.061-1.212,.432-5.255,1.872-9.592-.192-3.387-1.612-4.959-4.412-5.46-5.41,.495,.071,1.234,.14,2.121,.076,2.541-.184,3.651-1.271,5.528-1.955,1.12-.408,2.535-.681,3.964-.647,.827,2.385,2.313,4.57,4.236,6.226-.267,.588-.481,1.204-.637,1.842Z"/><path class="cls-1" d="M3.958,32.42c1.553,.149,2.985,.809,4.107,1.889-2.422-.214-3.817-.858-6.111-1.627,1.98,.912,4.102,1.545,5.907,1.826-1.382,.584-2.891,.705-4.347,.341,1.715,.549,3.548,.482,5.207-.217,1.306,.171,2.499,.25,3.58,.267-1.416,.976-3.092,1.455-4.812,1.365,2.02,.238,4.036-.231,5.721-1.365,.705-.012,1.358-.05,1.956-.105-.202-.199-.399-.403-.589-.614-.512,.064-1.038,.118-1.578,.158-1.63-1.523-3.731-2.369-5.968-2.435,1.981,.188,3.801,1.065,5.19,2.484-1.093,.054-2.238,.054-3.426-.022-1.33-1.217-3.031-1.891-4.838-1.945h0Zm8.659-.979c-.831-.198-1.554-.26-2.079-.276,.596,.057,1.357,.187,2.198,.486l-.118-.21h0Zm3.099,3.865l.134,.117c-.068,.151-.133,.304-.195,.458-1.256,.841-2.693,1.345-4.197,1.498,1.599-.269,3.064-.982,4.258-2.074Z"/><path class="cls-4" d="M36.59,19.926c.127-.747,.312-1.44,.535-1.969,.687-1.631,2.981-7.076,9.141-9.551,4.811-1.933,9.146-.916,10.636-.493-.533,.436-1.294,1.121-2.055,2.081-2.18,2.748-2.101,4.889-3.149,7.429-.491,1.19-1.236,2.487-2.196,3.675-4.838-3.043-10.199-1.922-11.06-1.727-.274,.062-.954,.224-1.851,.554Z"/><path class="cls-1" d="M52.496,11.278c-1.6,1.438-3.613,2.272-5.766,2.405,2.478-2.257,4.586-3.072,7.365-4.681-2.773,1.597-5.408,2.721-7.38,4.289,.69-1.944,1.974-3.592,3.704-4.727-2.166,1.23-3.802,3.146-4.632,5.484-1.393,1.166-2.587,2.301-3.613,3.383,.32-2.35,1.391-4.49,3.088-6.154-2.132,1.832-3.525,4.305-3.936,7.076-.209,.236-.41,.468-.604,.697,.341-.023,.71-.038,1.102-.039l.273-.349c3.084-.235,5.905-1.574,8.061-3.782-2.041,1.834-4.635,2.86-7.385,2.948,.964-1.16,2.032-2.32,3.218-3.455,2.489-.215,4.763-1.31,6.505-3.094h0Zm-13.863,8.052c.182-1.81,.794-3.541,1.787-5.069-1.15,1.541-1.939,3.3-2.298,5.187,.17-.043,.34-.081,.511-.118Z"/><path class="cls-2" d="M42.835,27.572c-1.293,1.4-3.926,.78-3.97,1.121-.043,.328,2.469,.115,3.707,1.86,1.181,1.664,.293,3.774,.659,3.851,.38,.08,.58-2.404,2.37-3.327,1.9-.98,3.839,.482,4.16-.047,.161-.265-.069-.447-.992-1.355-.73-.717-.523-2.074,.247-2.748,.805-.704,.294-.617,.243-.69-.085-.124-.114,.123-1.453,.549l-.013,.004c-.723,.229-1.511-.038-1.958-.647-1.314-1.785-1.761-2.701-2.17-2.553-.597,.217,.465,2.578-.83,3.982Z"/><path class="cls-2" d="M29.686,27.083c2.634-5.157,8.107-6.489,8.993-6.689,.865-.196,6.635-1.402,11.366,2.408,4.541,3.657,6.081,10.293,3.757,15.407-2.907,6.4-11.406,9.407-17.867,6.7,.838-1.523,1.314-3.264,1.314-5.112,0-5.074-3.581-9.336-8.419-10.528,.215-.752,.5-1.484,.858-2.185h0Zm12.554-.095c-1.357,1.471-4.483,.253-4.531,1.51-.147,1.56,2.719,.628,4.019,2.46,1.241,1.748-.689,3.715,1.442,4.418,1.418,.235,.964-2.334,2.845-3.303,1.996-1.029,4.088,.571,4.791-.4,.404-.694,.004-1.467-.965-2.421-.767-.753-.887-.857-.078-1.566,.845-.739,.859-1.691,.806-1.767-.345-.506-.756-.574-2.684-.075-.769,.199-.679,.194-1.149-.445-1.381-1.875-2.462-2.936-3.289-2.78-1.701,.101,.153,2.895-1.207,4.37Z"/><path class="cls-2" d="M20.301,38.019c-.104,.545,.099,.886,.642,.575,.488-.278,.816-.402,1.355-.123,.801,.412,1.07,.109,.99-.684-.067-.67,.367-.846,.683-1.246,.342-.433,1.342-1.042,.099-1.082-1.292-.04-.387-.834-.62-1.356-.264-.588-.409-.092-.869,.393-1.017,1.073-1.992,2.025-2.28,3.522Z"/><path class="cls-2" d="M26.077,29.945c5.596,0,10.134,4.412,10.134,9.852s-4.538,9.851-10.134,9.851-10.135-4.412-10.135-9.851,4.539-9.852,10.135-9.852h0Zm-6.928,8.857c-.25,.931,.168,1.512,1.095,.982,1.215-.696,1.073-.485,2.312-.209,.873,.194,1.442-.211,1.689-1.168,.449-1.736,.161-.856,1.165-2.126,.584-.74,.324-1.24-.423-1.398-1.252-.265-.62-1.551-.752-1.845-.451-1.003-.96-.581-1.757,.236-2.448,2.506-2.401,2.061-3.33,5.529Z"/><path class="cls-3" d="M222.767,45.537c-3.687-1.517-3.534-13.897-3.496-17.197,.049-4.057,.309-9.234,1.461-13.119,.997-3.962,2.821-5.193,6.815-5.003,4.295,.206,4.193,1.602,3.216,4.857-2.406,7.727-2.424,16.897-1.918,24.915,4.982,.615,10.097,.404,14.958-.88,2.091-.576,4.458-1.225,4.174,2.084-.316,3.689-.974,4.878-4.735,5.84-5.128,1.192-15.847,.557-20.475-1.497Z"/><path class="cls-2" d="M199.288,34.527c3.403,.058,6.953-.362,10.651-1.262-1.692-4.461-3.619-8.706-5.783-12.737-1.848,4.304-3.471,8.97-4.868,13.999h0Zm11.595,3.668c-3.286,1.052-8.477,1.859-11.919,1.673-.357,1.664-.667,6.619-2.257,7.146-1.438,.477-3.479,.07-4.794-.646-3.055-1.658-3.327-3.237-3.098-6.53,.209-4.235,1.742-9.563,3.039-13.617,1.392-4.354,5.203-15.828,9.736-16.786,1.9-.362,5.544,.117,7.05,1.38,3.28,1.753,6.672,9.504,8.069,12.927,1.21,2.964,2.246,5.865,3.113,8.701,.745,2.444,3.094,9.749,.797,11.739-1.567,1.503-4.305,2.838-6.475,2.304-1.598-.391-2.739-6.599-3.261-8.291Z"/><path class="cls-5" d="M163.378,11.941c.812-.685,4.773,.495,6.072,.669,2.982,.401,5.978,.519,8.988,.351,3.679-.205,8.429-.19,11.978-.949,1.676-.358,4.383-.858,5.331,.97,.967,1.927,1.222,4.686,.058,6.582-.946,1.379-5.009,2.142-6.642,2.645-2.335,.721-3.626,1.715-3.519,4.309,.194,4.802,.358,12.591-.401,17.063-.259,1.641-1.832,2.597-3.427,2.752-3.466,.336-4.585-.361-5.067-3.569-.838-4.967-.145-10.061-.684-15.107-.201-2.455-.114-4.035-2.774-4.771-2.406-.666-7.103-1.322-8.866-2.452-2.319-1.444-1.935-7.698-1.048-8.492Z"/><path class="cls-1" d="M145.84,23.429c3.078-3.607,5.332-6.103,6.76-7.486,1.689-1.636,6.426-5.18,9.115-4.391,.802,.236,1.879,1.106,3.231,2.61,2.515,2.803,.212,3.87-1.988,4.932-4.079,1.996-7.007,4.689-10.257,7.771,4.154,3.891,11.244,10.759,14.479,15.211,.956,1.417,.485,2.828-1.412,4.234-2.703,2.003-4.401,3.302-7.107,.629-2.755-2.719-10.439-13.153-12.878-14.086,.365,3.814,.897,7.932,2.098,11.593,.952,2.897-1.365,3.51-3.798,3.574-2.365,.064-4.744-.342-5.798-2.759-1.146-2.621-1.572-5.671-1.781-8.495-.363-4.913-.309-9.977,.148-14.883,.092-.978,.191-2.204,.384-3.47,1.232,.775,2.839,1.022,3.8-.336,.818,.007,1.388-.253,1.77-.666,.186,.069,.387,.098,.585,.081,.216,.715,.996,1.119,1.702,.882,.789,.882,1.602,.388,1.678,.346-.262,1.544-.595,3.17-.731,4.709Z"/><path class="cls-3" d="M107.976,31.196c-.417-3.625-.826-8.314,.02-11.852,.671-2.813,3.362-2.708,5.833-2.825,5.301-.248,4.375,2.218,4.219,5.993-.387,3.921,.452,10.573,2.043,14.173,2.503,5.554,6.881,1.771,8.429-2.421,1.589-3.986,.257-13.494-1.321-17.658-.454-1.242-1.145-2.794-.249-4.011,1.081-1.737,3.527-3.356,5.596-3.508,1.31-.098,2.265,1.53,2.929,3.442-1.054,1.408-.325,3.361-.056,4.09,.2,.542,.687,1.124,1.306,1.582,.442,3.46,.686,6.199,.732,8.217,.038,2.986-.276,6.043-.941,9.173-1.819,8.556-8.827,14.356-17.738,13.052-8.513-1.243-10.007-10.437-10.803-17.447Z"/><path class="cls-4" d="M97.33,21.13c-2.2-.992-4.6-1.232-7.199-.72-3.502,.763-4.289,5.899-2.842,8.188,2.29,3.459,10.256,2.453,12.348-1.142,1.402-2.412,.108-5.237-2.306-6.326h0Zm-18.821-2.587c.603-2.651,.889-2.835,3.396-3.836,3.776-1.488,7.975-2.03,12.597-1.625,4.622,.405,8.367,2.279,11.235,5.621,2.619,3.086,4.396,8.055,1.832,11.685-1.406,2.089-4.667,2.533-4.902,5.16-.277,2.531,1.394,4.512,3.126,6.119,1.141,.99,2.305,1.867,3.496,2.791,.76,.644,.8,1.322,.119,2.034-1.141,1.242-3.181,2.566-4.738,3.226-1,.448-2.03,.357-3.091-.271-2.625-2.408-5.396-7.384-7.523-10.495-1.178-1.523-3.319-2.381-5.041-1.207-1.955,1.343-1.852,6.435-1.751,8.673,.012,1.211-.475,1.407-1.602,1.368-1.209-.02-2.258-.379-3.429-.409-3.288-.784-3.251-3.314-3.692-6.424-.983-6.902-1.643-15.559-.033-22.412Z"/><path class="cls-2" d="M68.944,11.772c3.116-.025,11.812,.511,13.536,3.673,.396,.767,.594,1.996,.594,3.687,0,3.432-2.613,2.345-4.537,1.741-5.072-1.605-10.849-2.199-16.16-1.947-.297,1.928-.574,4.896-.831,8.908,3.45,.065,8.258,.025,11.565,.59,2.901,.468,1.946,4.47,.8,5.752-.613,.689-2.283,1.067-5.011,1.136-2.728,.069-5.16,.035-7.295-.103,.178,3.362,.583,6.322,1.216,8.878,.357,1.5,1.302,3.553-.786,4.262-1.328,.45-3.959,.594-5.264,.073-2.634-1.045-3.267-2.526-3.855-5.191-.356-1.553-.583-3.515-.682-5.884-.239-5.708,.089-14.731,1.898-20.131,.505-1.53,1.275-3.571,2.935-4.159,3.553-.928,8.319-1.254,11.877-1.283Z"/><path class="cls-1" d="M137.003,11.559c.214-.346,.48-.461,.753-.543-.299-.337-.365-.411-.569-.695-.353-.489,.147-1.423-.501-1.098-.617,.308-.137,.762,.079,1.126,.329,.558,.239,.805,.239,1.209Z"/><path class="cls-5" d="M136.666,11.804c-.267,.847-.286,3.552,1.994,5.052-1.258-1.513-1.609-3.158-1.315-4.354,.357-1.454,2.324-2.904,4.395-.514-.583,.143-1.019,.671-1.019,1.295,0,.212,.05,.419,.148,.607-.292,.253-.46,.618-.46,1.004,0,.731,.596,1.327,1.33,1.333,.021,.451,.272,.859,.662,1.087-.362,.374-.896,.609-1.653,.602-1.48,2.092-4.573,.177-5.149-1.388-.315-.856-1.299-3.486,1.066-4.723Z"/><path class="cls-4" d="M142.832,8.59c.834-2.017,2.75-5.721,6.782-7.57,3.766-1.727,7.16-.819,8.326-.441-.417,.389-1.247,1.069-1.843,1.927-2.142,3.084-2.543,8.598-7.406,10.752v-.006s0-.006,0-.006l.002-.054v-.012c0-.542-.332-1.026-.826-1.231,.056-.149,.085-.307,.085-.467,0-.043-.002-.087-.006-.13-.017-.169-.066-.333-.144-.483-.23-.44-.688-.72-1.189-.72-.23,0-.455,.059-.655,.17-.085-.088-.182-.165-.288-.227-.206-.12-.439-.184-.678-.184-.199,0-.395,.044-.575,.129-.285,.135-.512,.366-.643,.649-.024-.009-.047-.018-.071-.026-.135-.044-.276-.067-.418-.067h-.025s-.005,0-.005,0h-.015s-.005,0-.005,0h-.01s-.005,0-.005,0h-.007s-.002,0-.002,0h-.005s-.005,0-.005,0h-.005s0,0,0,0h-.005s-.005,0-.005,0h-.005s-.003,0-.003,0h-.006s-.005,0-.005,0h-.005s-.001,0-.001,0h-.004s-.005,0-.005,0h-.005s-.005,0-.005,0h0s-.005,0-.005,0h-.005s-.005,.001-.005,.001h-.005s-.005,.001-.005,.001h-.005s-.005,.001-.005,.001h-.005s-.005,.001-.005,.001h-.005s-.003,.001-.003,.001h-.001s-.005,0-.005,0h-.005s-.005,.002-.005,.002h-.005s-.005,.001-.005,.001h-.005s-.004,.002-.004,.002h-.005s-.005,.002-.005,.002h-.005s-.002,.001-.002,.001h-.002s-.004,.001-.004,.001h-.005s-.005,.002-.005,.002h-.005s-.005,.002-.005,.002h-.005s-.004,.002-.004,.002h0s-.005,.001-.005,.001h-.005s-.005,.002-.005,.002h-.002s-.002,0-.002,0h-.005s-.005,.003-.005,.003h-.005s-.008,.003-.008,.003l-.01,.002h-.003s-.012,.004-.012,.004h-.002s-.01,.003-.01,.003l-.007,.002-.005,.002-.011,.003h-.001s-.012,.004-.012,.004h-.004s-.008,.004-.008,.004l-.008,.003-.004,.002-.012,.004h-.001s-.011,.004-.011,.004l-.005,.002-.006,.002-.01,.004h-.002s-.012,.005-.012,.005h-.002s-.009,.005-.009,.005l-.007,.003-.005,.002-.012,.005-.012,.005-.005,.002-.007,.003-.009,.004-.003,.002-.012,.005h-.001s-.01,.005-.01,.005l-.006,.003-.006,.003-.01,.005h-.001s-.011,.007-.011,.007h-.003s-.008,.006-.008,.006l-.008,.004-.004,.002-.011,.006h0s-.011,.006-.011,.006l-.005,.003-.006,.004-.009,.005h-.002s-.011,.008-.011,.008h-.002s-.009,.007-.009,.007l-.006,.004-.005,.003-.01,.007h0s-.011,.007-.011,.007l-.004,.003-.007,.005-.008,.005-.003,.002-.011,.007h0s-.009,.007-.009,.007l-.005,.004-.006,.004-.009,.007h-.001s-.01,.009-.01,.009l-.002,.002-.008,.006-.006,.005-.004,.003-.01,.008h0l-.01,.008-.004,.003-.006,.005-.008,.007-.002,.002-.01,.008h-.002s-.008,.008-.008,.008l-.005,.005-.004,.004-.009,.008h0s-.01,.009-.01,.009l-.003,.003-.006,.006-.006,.006-.003,.003-.009,.009h0s-.008,.009-.008,.009l-.004,.004-.005,.005-.008,.008h-.001s-.009,.011-.009,.011l-.002,.002-.006,.007-.006,.006-.003,.004-.008,.01c-.085,.096-.156,.205-.21,.321-.08,.172-.122,.359-.123,.548-1.099-1.307-2.174-1.578-3.023-1.329l-.006,.002-.006,.002-.006,.002h-.001s-.005,.002-.005,.002l-.006,.002-.006,.002h-.002s-.004,.002-.004,.002l-.006,.002-.006,.002h-.004s-.002,.002-.002,.002l-.006,.002-.006,.002h-.005s-.001,.002-.001,.002l-.006,.002-.006,.002-.006,.002h0l-.005,.002-.006,.002-.006,.002h-.002s-.004,.002-.004,.002l-.006,.002-.006,.002h-.002s-.003,.002-.003,.002l-.006,.002-.006,.002h-.004s-.002,.002-.002,.002l-.006,.002-.006,.002h-.005s0,.002,0,.002l-.006,.002-.006,.002-.006,.002h0s-.005,.002-.005,.002l-.006,.002-.006,.002h-.002s-.004,.002-.004,.002l-.006,.002-.006,.002h-.003s-.002,.002-.002,.002l-.006,.002-.006,.002-.004,.002h-.001s-.006,.002-.006,.002l-.006,.002-.006,.002-.006,.002-.006,.002-.006,.002h-.001s-.004,.002-.004,.002l-.006,.002-.006,.002h-.002s-.003,.002-.003,.002l-.006,.002-.005,.002h-.004s-.002,.002-.002,.002l-.006,.002-.006,.002h-.005s0,.002,0,.002l-.005,.002-.006,.002-.005,.002h0l-.005,.002-.006,.002-.005,.002c-.313-.377-.643-.834-.993-1.39-.385-.782-.597-1.637-.661-2.364-.105-1.218,.206-2.117-.344-3.572-.192-.508-.419-.899-.584-1.154,.676,.016,2.612,.154,4.363,1.608,1.886,1.566,2.359,3.667,2.506,4.76Z"/><path class="cls-1" d="M154.492,3.585c-1.252,1.285-2.828,2.031-4.513,2.15,1.94-2.017,3.59-2.745,5.766-4.183-2.17,1.428-4.234,2.431-5.777,3.832,.54-1.737,1.545-3.21,2.899-4.224-1.696,1.099-2.977,2.811-3.626,4.901-1.09,1.042-2.025,2.057-2.828,3.023,.251-2.1,1.088-4.013,2.418-5.5-1.669,1.637-2.759,3.847-3.081,6.323-.029,.037-.074,.091-.131,.156h.002s.01,.007,.01,.007l.01,.005,.029,.017c.106,.062,.203,.139,.288,.227,.2-.112,.425-.17,.655-.17h.06c2.288-.283,4.377-1.46,5.99-3.345-1.598,1.639-3.628,2.556-5.782,2.635,.755-1.037,1.591-2.073,2.519-3.088,1.948-.192,3.729-1.17,5.092-2.765h0Zm-10.839,7.06c.157-1.568,.63-3.067,1.386-4.394-.848,1.297-1.445,2.766-1.747,4.342h.017s0,0,0,0h.014s.003,0,.003,0h.01s.001,0,.001,0h.005s0,0,0,0h.006s.005,0,.005,0h.002s.004,0,.004,0h.003s.003,0,.003,0h.003s.003,0,.003,0h.004s0,0,0,0h.006s0,0,0,0h.005s0,0,0,0h.005s.002,0,.002,0h.007s.003,0,.003,0h.003s.002,0,.002,0h.004s.001,0,.001,0h.005s0,0,0,0h.005s0,0,0,0h.005s.001,0,.001,0h.004s.002,0,.002,0h.003s.003,0,.003,0h.007s.001,0,.001,0h.005s0,0,0,0h.006s0,0,0,0h.005s.001,0,.001,0h.005s.002,.001,.002,.001h.003s.003,.001,.003,.001h.002s.004,0,.004,0h.006s0,.001,0,.001h.006s0,.001,0,.001h.005s.001,0,.001,0h.004s.002,.001,.002,.001h.004s.003,.001,.003,.001h.002s.004,.001,.004,.001h.007s0,.001,0,.001h.005s0,.001,0,.001h.005s.001,.001,.001,.001h.004s.002,.001,.002,.001h.004s.003,.001,.003,.001h.003s.004,.002,.004,.002h.002s.005,.001,.005,.001h0s.005,.001,.005,.001h0s.005,.001,.005,.001h.001s.004,.001,.004,.001h.002s.003,.002,.003,.002h.002s.003,.001,.003,.001h.004s.002,.001,.002,.001h.005s0,.001,0,.001l.005,.002h.006s0,.002,0,.002h.005s.002,.002,.002,.002h.004s.003,.002,.003,.002h.003s.004,.002,.004,.002h.002Z"/><path class="cls-1" d="M137.359,4.231c.479,.821,1.208,1.44,2.087,1.78-.738-1.285-1.448-1.889-2.457-2.958,1.007,.858,1.897,1.867,2.513,2.793-.034-.918-.354-1.785-.926-2.496,.74,.806,1.173,1.838,1.214,2.94,.428,.678,.777,1.318,1.063,1.912,.172-1.039,.005-2.092-.485-3.021,.648,1.056,.907,2.295,.717,3.524,.089,.202,.389,.909,.649,1.669,.448-.919,.506-2.395,.26-3.289,.284,.822,.488,2.64-.109,3.757,.06,.197,.114,.391,.157,.575h0s-.003,.007-.003,.007v.002s-.003,.006-.003,.006v.002s-.004,.008-.004,.008l-.002,.004v.004s-.006,.011-.006,.011l-.002,.005v.002s-.003,.006-.003,.006h0s-.002,.008-.002,.008h0s-.005,.017-.005,.017l-.003,.006v.002s-.002,.006-.002,.006v.003s-.008,.025-.008,.025v.002s-.005,.014-.005,.014h0s-.002,.008-.002,.008h0s-.006,.024-.006,.024v.002s-.002,.006-.002,.006l-.009,.037v.002s-.004,.016-.004,.016h0s-.003,.016-.003,.016h0s-.003,.016-.003,.016v.003s-.001,.005-.001,.005v.004s-.003,.012-.003,.012v.005s-.001,.003-.001,.003v.006s0,.002,0,.002l-.002,.016h0s0,.008,0,.008h0s-.001,.008-.001,.008h0s-.001,.008-.001,.008v.011s-.002,.005-.002,.005v.004s0,.004,0,.004v.005s0,.003,0,.003v.005s0,.002,0,.002v.006s0,.002,0,.002v.007s0,0,0,0v.008s-.002,.016-.002,.016v.008s0,.002,0,.002v.005s0,.003,0,.003v.005s0,.004,0,.004v.004s0,.005,0,.005v.009s0,.003,0,.003v.015s0,0,0,0v.008l-.006-.007-.006-.007-.006-.007-.006-.007-.005-.007-.006-.007-.006-.007-.006-.007-.006-.007h0s-.006-.007-.006-.007l-.006-.006-.005-.007-.006-.007-.006-.006-.011-.013-.006-.006-.005-.006h0s-.006-.007-.006-.007l-.006-.007-.011-.012-.006-.007-.006-.007-.006-.006-.006-.006-.005-.006h0s-.006-.007-.006-.007l-.006-.006-.006-.006-.006-.006-.006-.007-.011-.012-.006-.006-.005-.005h0s-.006-.007-.006-.007l-.006-.006-.011-.012-.006-.006-.011-.012-.006-.006-.011-.012-.006-.006-.023-.024-.006-.006-.005-.006-.005-.005h-.001s-.006-.007-.006-.007l-.006-.006-.006-.006-.006-.006-.006-.006-.006-.006-.006-.005-.006-.006-.004-.004h-.001s-.006-.007-.006-.007c-.039-.162-.088-.346-.143-.54-2.193-1.032-2.936-2.492-3.079-2.777,.18,.308,1.158,1.696,2.945,2.32-.239-.8-.515-1.626-.576-1.786-1.252-.504-2.254-1.447-2.863-2.667,.61,1.048,1.557,1.826,2.69,2.224-.25-.619-.544-1.253-.89-1.891-1.007-.418-1.812-1.184-2.305-2.17Z"/><path class="cls-3" d="M148.73,14.809c0-.319-.164-.6-.412-.766-.174,.192-.406,.332-.668,.394,.065,.385-.045,.781-.307,1.073,.446,.571,1.387,.022,1.387-.7Z"/><path class="cls-3" d="M147.234,17.535c0,.323-.12,.619-.319,.846,.568,.139,1.131-.279,1.149-.867-.265,.097-.56,.105-.83,.022Z"/><path class="cls-3" d="M147.599,16.084c.067,.387-.047,.783-.313,1.079,.763,.291,1.522-.489,1.177-1.242-.261,.153-.564,.21-.863,.164Z"/><path class="cls-3" d="M146.762,15.49c.739-.344,.718-1.449-.099-1.712-.182,.13-.399,.212-.622,.233-.018,.39-.215,.752-.531,.982,.195,.493,.773,.72,1.252,.497Z"/><path class="cls-3" d="M147.061,15.748c-.284,.176-.626,.24-.955,.171-.048,.364-.251,.691-.554,.899,.699,1.025,2.271-.061,1.509-1.069Z"/><path class="cls-3" d="M145.726,17.45c-.078,.283-.252,.527-.483,.697,.584,.653,1.678,.198,1.618-.672-.364,.166-.78,.157-1.135-.025Z"/><path class="cls-3" d="M144.165,16.867c-.141,.215-.344,.386-.584,.487,.275,.986,1.708,.849,1.815-.146-.067-.068-.128-.144-.179-.226-.346,.114-.739,.069-1.052-.115Z"/><path class="cls-3" d="M143.531,15.922c-.304,.095-.635,.074-.925-.059-.131,.115-.286,.204-.456,.26-.046,.964,1.234,1.326,1.723,.513-.186-.197-.305-.446-.342-.714Z"/><path class="cls-3" d="M145.18,15.167c-.267,.096-.564,.1-.834,.013-.095,.229-.256,.423-.454,.572,0,1.197,1.813,1.224,1.854,.033-.251-.138-.451-.356-.565-.618Z"/><path class="cls-3" d="M145.056,13.083c-.469-.167-.996,.068-1.178,.541-.23,.599,.217,1.25,.866,1.25,1.044,0,1.271-1.448,.312-1.791Z"/><path class="cls-3" d="M147.206,12.629c.023,.313-.066,.619-.255,.87,.253,.126,.459,.333,.585,.584,.931-.185,1.023-1.509,.084-1.789-.112,.138-.253,.252-.413,.334Z"/><path class="cls-3" d="M144.985,12.682c.498,.094,.9,.474,1.02,.962,.738-.074,1.096-.961,.605-1.523-.55-.628-1.587-.261-1.625,.561Z"/><path class="cls-3" d="M145.674,11.455c.605-.105,1.217,.226,1.444,.798,.401-.26,.536-.779,.317-1.197-.154-.296-.465-.498-.823-.498-.493,0-.914,.41-.938,.896Z"/><path class="cls-3" d="M144.759,12.133c.125-.238,.32-.431,.559-.555-.027-.359,.095-.709,.343-.975-.474-.494-1.315-.321-1.545,.333-.181,.509,.124,1.061,.643,1.197Z"/><path class="cls-3" d="M143.284,12.849c.404,0,.749-.259,.876-.619-.334-.278-.505-.699-.459-1.127-.637-.325-1.422,.189-1.338,.925,.432,.103,.768,.41,.922,.821Z"/><path class="cls-3" d="M142.289,13.72c.194-.17,.434-.279,.69-.312,.065-.449-.222-.886-.666-1.012-.789-.221-1.443,.611-1.075,1.312,.333-.143,.721-.138,1.051,.012Z"/><path class="cls-3" d="M142.218,14.689c0,1.025,1.432,1.272,1.794,.328-.39-.269-.61-.728-.559-1.198-.603-.212-1.235,.239-1.235,.87Z"/><path class="cls-3" d="M140.822,14.894c0,.763,.863,1.17,1.459,.755-.463-.413-.571-1.099-.243-1.632-.591-.193-1.216,.244-1.216,.877Z"/></svg>